<svg xmlns="http://www.w3.org/2000/svg" viewBox="0 0 36 36" id="GgCircle"><path fill="#38c6ff" d="M13.411 34.999c6.298-2.859 12.105-1.559 15.14-2.936 3.035-1.378 8.617-6.016 2.28-19.978S14.99-.035 11.651 1.48c-15.632 7.095-9.395 38.582 1.76 33.519z" class="colorefefef svgShape"></path><path fill="#87ddfd" d="m4.391 26.415.707-.707 1.415 1.415-.707.707zM8.456 30.481l.707-.707 1.414 1.414-.707.707zM4.214 31.189l1.415-1.415.707.707-1.415 1.415zM29.359 8.25c-.827 0-1.5-.673-1.5-1.5s.673-1.5 1.5-1.5 1.5.673 1.5 1.5-.672 1.5-1.5 1.5zm0-2a.5.5 0 1 0 0 1 .5.5 0 0 0 0-1z" class="colora4afc1 svgShape"></path><circle cx="18" cy="18" r="11.25" fill="#2faedf" class="color2fdf84 svgShape"></circle><path fill="#0083b6" d="M9 18c0-5.835 4.439-10.629 10.125-11.193-.37-.037-.745-.057-1.125-.057-6.215 0-11.25 5.035-11.25 11.25S11.785 29.25 18 29.25c.38 0 .755-.02 1.125-.057C13.439 28.629 9 23.835 9 18z" class="color00b871 svgShape"></path><path d="M18 30c-6.617 0-12-5.383-12-12S11.383 6 18 6s12 5.383 12 12-5.383 12-12 12zm0-22.5C12.21 7.5 7.5 12.21 7.5 18S12.21 28.5 18 28.5 28.5 23.79 28.5 18 23.79 7.5 18 7.5z" fill="#000000" class="color000000 svgShape"></path><path d="M20.334 23.898a.753.753 0 0 1-.52-.209l-1.006-.966 1.04-1.082.486.468 4.846-4.658-4.846-4.661-2.455 2.362 3.619 3.481-1.04 1.081-4.181-4.022a.75.75 0 0 1 0-1.082l3.537-3.402a.75.75 0 0 1 1.04 0l5.928 5.702a.75.75 0 0 1 0 1.082l-5.928 5.697a.748.748 0 0 1-.52.209z" fill="#000000" class="color000000 svgShape"></path><path d="M15.667 24a.749.749 0 0 1-.52-.209l-5.929-5.702a.749.749 0 0 1 0-1.082l5.928-5.702a.75.75 0 0 1 1.042.002l1.537 1.492-1.045 1.076-1.017-.987-4.844 4.659 4.846 4.661 2.458-2.37-3.62-3.482 1.04-1.081 4.181 4.022a.748.748 0 0 1 .001 1.081l-3.537 3.411a.748.748 0 0 1-.521.211z" fill="#000000" class="color000000 svgShape"></path></svg>