<svg xmlns="http://www.w3.org/2000/svg" viewBox="0 0 32 32" id="Love"><g transform="translate(1093.151 -909.062)" fill="#000000" class="color000000 svgShape"><rect width="21" height="19" x="-1087.651" y="918.562" fill="#b7b7b7" rx="1.5" ry="1.5" class="color7acbf5 svgShape"></rect><path fill="#aaaaaa" d="M-1079.472 924.544c-1.748 0-3.166 1.211-3.166 3.416s2.955 4.327 5.488 6.605c2.533-2.278 5.502-4.373 5.502-6.605s-1.418-3.416-3.167-3.416c-.922 0-1.756.688-2.335 1.366-.578-.674-1.403-1.366-2.322-1.366z" class="colorff5855 svgShape"></path><path fill="none" stroke="#3a3a3a" stroke-linecap="round" stroke-linejoin="round" d="M-1073.651 912.562a3 3 0 0 1 0 6h-3v-3a3 3 0 0 1 3-3zm-6 0a3 3 0 1 0 0 6h3v-3a3 3 0 0 0-3-3z" class="colorStroke560f65 svgStroke"></path><path fill="#b5b5b5" d="M-1075.313 924.55c-.147 0-.295.03-.437.062 1.473.235 2.329 1.364 2.329 3.344 0 2.086-2.328 4.048-4.735 6.156.17.149.333.288.5.438 2.533-2.278 5.5-4.362 5.5-6.594s-1.408-3.406-3.156-3.406z" class="colorff7a6c svgShape"></path><path fill="#919191" d="M-1079.013 924.55c.147 0 .296.03.438.062-1.474.235-2.24 1.364-2.24 3.344 0 2.086 1.708 4.468 4.116 6.576-.17.149.263-.22.096-.07-2.533-2.278-5.567-4.274-5.567-6.506s1.408-3.406 3.157-3.406z" class="colord94c4a svgShape"></path><path fill="none" stroke="#3a3a3a" stroke-linecap="round" stroke-linejoin="round" d="M-1079.472 924.544c-1.748 0-3.166 1.211-3.166 3.416s2.955 4.327 5.488 6.605c2.533-2.278 5.502-4.373 5.502-6.605s-1.418-3.416-3.167-3.416c-.922 0-1.756.688-2.335 1.366-.578-.674-1.403-1.366-2.322-1.366z" class="colorStroke560f65 svgStroke"></path><path fill="#bebebe" d="M-1069.969 918.55c.831 0 1.5.669 1.5 1.5v16c0 .83-.669 1.5-1.5 1.5h1.813c.83 0 1.5-.67 1.5-1.5v-16c0-.831-.67-1.5-1.5-1.5h-1.813z" class="color7eebff svgShape"></path><path fill="#a4a4a4" d="M-1086.473 918.55c-.831 0-1.5.669-1.5 1.5v16c0 .83.669 1.5 1.5 1.5h2.187c-.83 0-1.5-.67-1.5-1.5v-16c0-.831.67-1.5 1.5-1.5h-2.187z" class="color6db4db svgShape"></path><rect width="21" height="19" x="-1087.651" y="918.562" fill="none" stroke="#3a3a3a" stroke-linecap="round" stroke-linejoin="round" rx="1.5" ry="1.5" class="colorStroke560f65 svgStroke"></rect><rect width="23" height="3" x="-1088.651" y="918.562" fill="#adadad" rx="0" ry="0" class="colorff5c7a svgShape"></rect><path fill="#b7b7b7" d="M-1067.35 918.55v3h1.694v-3z" class="colorff7096 svgShape"></path><path fill="#999999" d="M-1088.651 918.55v3h1.694v-3z" class="colorff3465 svgShape"></path><rect width="23" height="3" x="-1088.651" y="918.562" fill="none" stroke="#3a3a3a" stroke-linecap="round" stroke-linejoin="round" rx="0" ry="0" class="colorStroke560f65 svgStroke"></rect></g></svg>